<svg width="23" height="21" viewBox="0 0 23 21" fill="none" xmlns="http://www.w3.org/2000/svg">
<path d="M1 0.805908H3.6882" stroke="white" stroke-width="1.5" stroke-miterlimit="10" stroke-linecap="round"/>
<path d="M3.68848 0.854004L8.32331 16.97" stroke="white" stroke-width="1.5" stroke-miterlimit="10"/>
<path d="M4.04395 3.88403H22.2279" stroke="white" stroke-width="1.5" stroke-miterlimit="10" stroke-linejoin="round"/>
<path d="M18.5195 13.7953L21.5013 4.448" stroke="white" stroke-width="1.5" stroke-miterlimit="10"/>
<path d="M7.21094 13.2312H19.1379" stroke="white" stroke-width="1.5" stroke-miterlimit="10"/>
<path d="M8.75603 19.3071C9.50689 19.3071 10.1156 18.6722 10.1156 17.8889C10.1156 17.1057 9.50689 16.4707 8.75603 16.4707C8.00518 16.4707 7.39648 17.1057 7.39648 17.8889C7.39648 18.6722 8.00518 19.3071 8.75603 19.3071Z" stroke="white" stroke-width="1.5" stroke-miterlimit="10"/>
<path d="M18.0256 19.3071C18.7764 19.3071 19.3851 18.6722 19.3851 17.8889C19.3851 17.1057 18.7764 16.4707 18.0256 16.4707C17.2747 16.4707 16.666 17.1057 16.666 17.8889C16.666 18.6722 17.2747 19.3071 18.0256 19.3071Z" stroke="white" stroke-width="1.5" stroke-miterlimit="10"/>
<path d="M9.96094 16.9863H16.9595" stroke="white" stroke-width="1.5" stroke-miterlimit="10"/>
</svg>
