<svg width="5" height="12" viewBox="0 0 5 12" fill="none" xmlns="http://www.w3.org/2000/svg">
<path fill-rule="evenodd" clip-rule="evenodd" d="M4.34659 3.52201C4.3232 3.55298 4.29396 3.56875 4.26375 3.56875C4.23305 3.56875 4.20137 3.5516 4.17847 3.51786L2.51716 1.11478C0.837346 3.53058 0.819314 3.53943 0.78423 3.5563C0.721363 3.58534 0.654597 3.53971 0.633156 3.45341C0.615614 3.38317 0.633646 3.30767 0.674582 3.26535C0.764735 3.15307 1.77058 1.71216 2.43237 0.760219C2.4543 0.728145 2.485 0.710449 2.51765 0.710449C2.54933 0.710449 2.58003 0.728691 2.60294 0.760779L4.34952 3.28721C4.39533 3.3533 4.39386 3.4584 4.34659 3.52201ZM2.50352 1.21075C2.56931 1.21075 2.62243 1.28487 2.62243 1.37642L2.62291 11.1638C2.62291 11.2553 2.57029 11.3297 2.50401 11.3297C2.43871 11.3297 2.38559 11.2553 2.38559 11.1638L2.38461 1.37642C2.38461 1.28487 2.43822 1.21075 2.50352 1.21075Z" fill="#00A651"/>
<path d="M4.34659 3.52201L4.74556 3.82341L4.74792 3.82023L4.34659 3.52201ZM4.17847 3.51786L4.59217 3.23702L4.58975 3.23352L4.17847 3.51786ZM2.51716 1.11478L2.92845 0.830452L2.51836 0.237252L2.10665 0.829335L2.51716 1.11478ZM0.78423 3.5563L0.993906 4.01028L1.00091 4.00691L0.78423 3.5563ZM0.633156 3.45341L1.1184 3.33285L1.11826 3.33226L0.633156 3.45341ZM0.674582 3.26535L1.03397 3.61297L1.05001 3.59639L1.06446 3.57839L0.674582 3.26535ZM2.43237 0.760219L2.84293 1.04564L2.84515 1.04237L2.43237 0.760219ZM2.60294 0.760779L3.01427 0.476415L3.0099 0.470295L2.60294 0.760779ZM4.34952 3.28721L3.93823 3.57154L3.93857 3.57202L4.34952 3.28721ZM2.62243 1.37642H2.12243V1.37644L2.62243 1.37642ZM2.62291 11.1638H3.12291V11.1638L2.62291 11.1638ZM2.38559 11.1638H2.88559V11.1637L2.38559 11.1638ZM2.38461 1.37642H1.88461V1.37646L2.38461 1.37642ZM3.94763 3.22063C3.99678 3.15557 4.10404 3.06875 4.26375 3.06875V4.06875C4.48388 4.06875 4.64961 3.95039 4.74555 3.8234L3.94763 3.22063ZM4.26375 3.06875C4.42755 3.06875 4.53944 3.15938 4.59215 3.23703L3.76478 3.79868C3.8633 3.94381 4.03854 4.06875 4.26375 4.06875V3.06875ZM4.58975 3.23352L2.92845 0.830452L2.10588 1.39911L3.76718 3.80219L4.58975 3.23352ZM2.10665 0.829335C1.26627 2.03792 0.843749 2.64127 0.627111 2.94444C0.516817 3.09879 0.466502 3.16597 0.443666 3.19442C0.430634 3.21065 0.439509 3.19779 0.460955 3.17802C0.474737 3.16531 0.494919 3.14852 0.521385 3.13157C0.547218 3.11503 0.569905 3.10456 0.567555 3.10569L1.00091 4.00691C1.03208 3.99192 1.08309 3.96458 1.13878 3.91324C1.17449 3.88032 1.20365 3.84513 1.22349 3.82042C1.2664 3.76697 1.33216 3.67778 1.44073 3.52584C1.66184 3.21642 2.08824 2.60745 2.92768 1.40023L2.10665 0.829335ZM0.574579 3.10238C0.714191 3.03789 0.867594 3.06189 0.974808 3.13498C1.0697 3.19967 1.10613 3.28345 1.1184 3.33285L0.147909 3.57398C0.181624 3.70967 0.262155 3.85941 0.411509 3.96123C0.573183 4.07145 0.791403 4.10374 0.993881 4.01022L0.574579 3.10238ZM1.11826 3.33226C1.12902 3.37536 1.12888 3.41815 1.11968 3.45894C1.11099 3.49747 1.08898 3.5561 1.03397 3.61297L0.315193 2.91773C0.133743 3.10532 0.0963653 3.3676 0.148056 3.57457L1.11826 3.33226ZM1.06446 3.57839C1.16895 3.44826 2.19169 1.98237 2.84291 1.04563L2.02183 0.474811C1.69114 0.950489 1.27458 1.5482 0.929565 2.04083C0.757002 2.28722 0.602692 2.50682 0.48609 2.67156C0.427727 2.75402 0.379319 2.82201 0.343013 2.87246C0.324821 2.89774 0.310234 2.91783 0.299253 2.93275C0.28672 2.94977 0.283068 2.95435 0.284706 2.95231L1.06446 3.57839ZM2.84515 1.04237C2.79212 1.11996 2.67999 1.21045 2.51765 1.21045V0.210449C2.29001 0.210449 2.11647 0.336335 2.01959 0.478065L2.84515 1.04237ZM2.51765 1.21045C2.34644 1.21045 2.24 1.11294 2.19597 1.05126L3.0099 0.470295C2.92007 0.344442 2.75221 0.210449 2.51765 0.210449V1.21045ZM2.19165 1.04511L3.93823 3.57154L4.7608 3.00287L3.01422 0.476447L2.19165 1.04511ZM3.93857 3.57202C3.89194 3.50475 3.88246 3.44092 3.883 3.39908C3.88354 3.3576 3.89456 3.29203 3.94526 3.2238L4.74792 3.82023C4.84589 3.68838 4.88129 3.53846 4.88292 3.41199C4.88456 3.28518 4.8529 3.13576 4.76047 3.00239L3.93857 3.57202ZM2.50352 1.71075C2.3344 1.71075 2.2271 1.61444 2.18139 1.55073C2.13523 1.48639 2.12243 1.42309 2.12243 1.37642H3.12243C3.12243 1.2382 3.08307 1.09206 2.9939 0.967781C2.90518 0.84412 2.73843 0.710753 2.50352 0.710753V1.71075ZM2.12243 1.37644L2.12291 11.1638L3.12291 11.1638L3.12243 1.37639L2.12243 1.37644ZM2.12291 11.1638C2.12291 11.1182 2.13524 11.0552 2.18134 10.9906C2.22739 10.9261 2.33504 10.8297 2.50401 10.8297V11.8297C2.73926 11.8297 2.90636 11.6962 2.9953 11.5715C3.08427 11.4469 3.12291 11.3009 3.12291 11.1638H2.12291ZM2.50401 10.8297C2.67532 10.8297 2.78258 10.928 2.82727 10.9906C2.87283 11.0544 2.88559 11.1172 2.88559 11.1638H1.88559C1.88559 11.302 1.9249 11.4477 2.01335 11.5716C2.10093 11.6943 2.26739 11.8297 2.50401 11.8297V10.8297ZM2.88559 11.1637L2.88461 1.37637L1.88461 1.37646L1.88559 11.1638L2.88559 11.1637ZM2.88461 1.37642C2.88461 1.42411 2.87139 1.48741 2.82545 1.55127C2.78046 1.61379 2.67353 1.71075 2.50352 1.71075V0.710753C2.26821 0.710753 2.10182 0.844772 2.01371 0.967242C1.92464 1.09104 1.88461 1.23718 1.88461 1.37642H2.88461Z" fill="#00A651"/>
</svg>
