<svg width="132" height="29" viewBox="0 0 132 29" fill="none" xmlns="http://www.w3.org/2000/svg">
<path d="M12.1786 25.0144C10.7185 25.0144 9.36671 24.7412 8.1267 24.1913C6.88669 23.6415 5.81085 22.8919 4.89918 21.9358C3.98751 20.9831 3.27494 19.8483 2.76496 18.5384C2.25499 17.2285 2 15.8101 2 14.29C2 12.7489 2.25499 11.341 2.76496 10.0696C3.27494 8.79822 3.98401 7.71248 4.89918 6.81936C5.81085 5.92274 6.88669 5.22926 8.1267 4.73893C9.36671 4.24859 10.715 4.00342 12.1786 4.00342H23.5378V7.67395H12.1786C11.2355 7.67395 10.3657 7.84206 9.5693 8.1783C8.7729 8.51453 8.08478 8.98385 7.50844 9.57926C6.9321 10.1782 6.47801 10.8892 6.15316 11.7192C5.82482 12.5493 5.66414 13.4634 5.66414 14.4651C5.66414 15.4493 5.82831 16.3634 6.15316 17.211C6.47801 18.0586 6.9321 18.7871 7.50844 19.393C8.08478 19.9989 8.7729 20.4753 9.5693 20.8255C10.3657 21.1723 11.2355 21.3474 12.1786 21.3474H23.5378V25.0179H12.1786V25.0144Z" fill="white"/>
<path d="M36.0775 25.0144C34.6174 25.0144 33.2656 24.7412 32.0256 24.1913C30.7856 23.6415 29.7098 22.8919 28.7981 21.9358C27.8864 20.9831 27.1739 19.8483 26.6639 18.5384C26.1539 17.2285 25.8989 15.8101 25.8989 14.29C25.8989 12.7489 26.1539 11.341 26.6639 10.0696C27.1739 8.79822 27.8829 7.71248 28.7981 6.81936C29.7098 5.92274 30.7856 5.22926 32.0256 4.73893C33.2656 4.24859 34.6139 4.00342 36.0775 4.00342H41.1807C42.7002 4.00342 44.0869 4.25559 45.3479 4.75644C46.6054 5.25728 47.6882 5.96127 48.5894 6.86489C49.4941 7.77202 50.1927 8.85426 50.6922 10.1151C51.1917 11.376 51.4431 12.77 51.4431 14.2935C51.4431 15.8171 51.1882 17.232 50.6782 18.5419C50.1682 19.8518 49.4591 20.9831 48.544 21.9393C47.6323 22.8919 46.5495 23.645 45.3025 24.1948C44.052 24.7447 42.6792 25.0179 41.1807 25.0179H36.0775V25.0144ZM41.1773 21.3439C42.1378 21.3439 43.0216 21.1688 43.8284 20.822C44.6353 20.4753 45.3304 19.9989 45.9172 19.3895C46.5041 18.7836 46.9581 18.0551 47.2865 17.2075C47.6113 16.3599 47.7755 15.4458 47.7755 14.4616C47.7755 13.4775 47.6113 12.5668 47.2865 11.7297C46.9581 10.8927 46.5041 10.1747 45.9172 9.57576C45.3304 8.98035 44.6353 8.51103 43.8284 8.17479C43.0216 7.83856 42.1378 7.67045 41.1773 7.67045H36.074C35.1309 7.67045 34.2611 7.83856 33.4647 8.17479C32.6683 8.51103 31.9802 8.98035 31.4039 9.57576C30.8275 10.1747 30.3769 10.8857 30.0486 11.7157C29.7203 12.5458 29.5596 13.4599 29.5596 14.4616C29.5596 15.4458 29.7237 16.3599 30.0486 17.2075C30.3734 18.0551 30.8275 18.7836 31.4039 19.3895C31.9802 19.9954 32.6683 20.4718 33.4647 20.822C34.2611 21.1688 35.1309 21.3439 36.074 21.3439H41.1773Z" fill="white"/>
<path d="M73.8681 25.0144L68.5623 19.1759H60.7205V15.9396H69.4565C70.7838 15.9396 71.7828 15.5789 72.4535 14.8574C73.1276 14.1359 73.4629 13.0887 73.4629 11.7227C73.4629 10.3533 73.1136 9.3376 72.4115 8.67214C71.7094 8.00668 70.7244 7.67395 69.4565 7.67395H58.0414V25.0179H54.4087V4.00342H69.4565C70.6476 4.00342 71.7129 4.18204 72.656 4.53929C73.5991 4.89653 74.3955 5.40789 75.0487 6.06984C75.7019 6.7353 76.2014 7.54086 76.5472 8.48301C76.893 9.42866 77.0677 10.4864 77.0677 11.6632C77.0677 13.4179 76.687 14.8854 75.929 16.0727C75.171 17.2566 74.1091 18.1111 72.7434 18.6295L79.0552 25.0179H73.8681V25.0144Z" fill="white"/>
<path d="M80.9624 25.0145V4H99.6708V7.67053H84.5951V21.344H99.7023V25.0145H80.9624ZM87.2742 15.8802V12.7876H98.8919V15.8802H87.2742Z" fill="white"/>
<path d="M123.916 25.0145L115.124 16.4301L106.419 25.0145H101.662L112.906 14.087L102.469 4H107.513L115.498 11.7754L123.367 4H128.125L117.688 14.087L129.047 25.0145H123.916Z" fill="white"/>
</svg>
