<svg width="106" height="31" viewBox="0 0 106 31" fill="none" xmlns="http://www.w3.org/2000/svg">
<path d="M27.5701 30.694L20.0528 22.4413H8.94259V17.8669H21.3197C23.2003 17.8669 24.6156 17.357 25.5658 16.3371C26.521 15.3173 26.996 13.8371 26.996 11.9063C26.996 9.97061 26.5011 8.53493 25.5064 7.59431C24.5117 6.65369 23.1161 6.18338 21.3197 6.18338H5.14682V30.6989H0V0.995117H21.3197C23.0073 0.995117 24.5167 1.2476 25.8528 1.75256C27.189 2.25753 28.3174 2.98032 29.2428 3.91599C30.1683 4.85661 30.8759 5.99525 31.3659 7.32697C31.8558 8.66365 32.1033 10.1587 32.1033 11.8221C32.1033 14.3024 31.5638 16.3767 30.4899 18.055C29.416 19.7283 27.9116 20.9363 25.9766 21.669L34.9192 30.6989H27.5701V30.694Z" fill="white"/>
<path d="M37.6213 30.694V0.990234H64.1275V6.1785H42.7682V25.5058H64.172V30.694H37.6213ZM46.5639 17.7828V13.4114H63.0239V17.7828H46.5639Z" fill="white"/>
<path d="M98.4774 30.694L86.0212 18.56L73.6886 30.694H66.9482L82.8786 15.2481L68.0914 0.990234H75.2376L86.5507 11.9806L97.7005 0.990234H104.441L89.6536 15.2481L105.747 30.694H98.4774Z" fill="white"/>
</svg>
