<svg width="50" height="50" viewBox="0 0 50 50" fill="none" xmlns="http://www.w3.org/2000/svg">
<path d="M0.7818 37.2636C1.8243 36.2211 3.5145 36.2211 4.557 37.2636L12.7363 45.443C13.7788 46.4854 13.7788 48.1756 12.7363 49.2181C11.6939 50.2605 10.0037 50.2605 8.9612 49.2181L0.7818 41.0387C-0.2606 39.9962 -0.2606 38.306 0.7818 37.2636Z" fill="url(#paint0_linear)"/>
<path d="M1.67169 23.0267C2.71419 21.9842 4.40439 21.9842 5.44689 23.0267L26.8391 44.4189C27.8811 45.4614 27.8811 47.1515 26.8391 48.194C25.7971 49.2365 24.1061 49.2365 23.0641 48.194L1.67169 26.8018C0.629293 25.7593 0.629293 24.0691 1.67169 23.0267Z" fill="url(#paint1_linear)"/>
<path d="M23.0269 1.67145C24.0689 0.629048 25.7589 0.629048 26.8019 1.67145L48.1939 23.0638C49.2369 24.1063 49.2369 25.7963 48.1939 26.8388C47.1519 27.8813 45.4619 27.8813 44.4189 26.8388L23.0269 5.44665C21.9839 4.40415 21.9839 2.71395 23.0269 1.67145Z" fill="url(#paint2_linear)"/>
<path d="M37.2639 0.781556C38.3059 -0.260844 39.9959 -0.260844 41.0389 0.781556L49.2179 8.96096C50.2609 10.0035 50.2609 11.6937 49.2179 12.7361C48.1759 13.7786 46.4859 13.7786 45.4429 12.7361L37.2639 4.55676C36.2209 3.51426 36.2209 1.82406 37.2639 0.781556Z" fill="url(#paint3_linear)"/>
<path d="M34.272 22.6747C33.23 21.6322 31.54 21.6322 30.497 22.6747L22.814 30.3582C21.771 31.4007 21.771 33.0909 22.814 34.1333L31.923 43.2425C32.965 44.285 34.655 44.285 35.698 43.2425L37.583 41.3576L30.21 33.9851C29.132 32.9068 29.132 31.1584 30.21 30.0801C31.288 29.0018 33.037 29.0018 34.115 30.0801L41.488 37.4526L43.381 35.5589C44.424 34.5165 44.424 32.8263 43.381 31.7838L34.272 22.6747Z" fill="url(#paint4_linear)"/>
<path d="M29.041 36.5875C30.084 35.545 31.774 35.545 32.817 36.5875L40.996 44.7669C42.038 45.8094 42.038 47.4995 40.996 48.542C39.954 49.5845 38.263 49.5845 37.221 48.542L29.041 40.3626C27.999 39.3201 27.999 37.63 29.041 36.5875Z" fill="url(#paint5_linear)"/>
<path d="M36.7251 28.9047C37.7681 27.8622 39.4581 27.8622 40.5001 28.9047L48.6801 37.0841C49.7221 38.1265 49.7221 39.8167 48.6801 40.8592C47.6371 41.9016 45.9471 41.9016 44.9051 40.8592L36.7251 32.6798C35.6831 31.6373 35.6831 29.9472 36.7251 28.9047Z" fill="url(#paint6_linear)"/>
<path d="M15.1893 26.649C16.2318 27.6915 17.922 27.6915 18.9644 26.649L26.648 18.9654C27.69 17.923 27.69 16.2328 26.648 15.1903L17.5388 6.08119C16.4964 5.03869 14.8062 5.03869 13.7637 6.08119L11.8789 7.96599L19.2514 15.3385C20.3298 16.4169 20.3298 18.1652 19.2514 19.2435C18.1731 20.3219 16.4248 20.3219 15.3464 19.2435L7.97391 11.871L6.08021 13.7647C5.03771 14.8072 5.03771 16.4974 6.08021 17.5398L15.1893 26.649Z" fill="url(#paint7_linear)"/>
<path d="M20.4201 12.736C19.3777 13.7785 17.6875 13.7785 16.645 12.736L8.46571 4.55673C7.42321 3.51423 7.42321 1.82403 8.46571 0.781631C9.50811 -0.260869 11.1983 -0.260869 12.2408 0.781631L20.4201 8.96093C21.4631 10.0034 21.4631 11.6936 20.4201 12.736Z" fill="url(#paint8_linear)"/>
<path d="M4.23308 8.18808V9.92278C4.23308 10.1183 4.29747 10.3083 4.41627 10.4636L5.86127 12.3516C6.18077 12.7691 6.79068 12.8201 7.17498 12.4614L7.88818 11.7957L12.7364 16.6439C13.7789 17.6863 13.7789 19.3765 12.7364 20.419C11.6939 21.4614 10.0038 21.4614 8.96128 20.419L0.781875 12.2396C-0.260625 11.1971 -0.260625 9.50687 0.781875 8.46447C1.72218 7.52417 3.18948 7.43198 4.23308 8.18808Z" fill="url(#paint9_linear)"/>
<defs>
<linearGradient id="paint0_linear" x1="42.939" y1="6.45747" x2="6.0127" y2="43.3842" gradientUnits="userSpaceOnUse">
<stop offset="0.00264941" stop-color="#783E97"/>
<stop offset="0.888832" stop-color="#32B0E5"/>
</linearGradient>
<linearGradient id="paint1_linear" x1="42.9391" y1="6.45745" x2="6.01279" y2="43.3841" gradientUnits="userSpaceOnUse">
<stop offset="0.00264941" stop-color="#783E97"/>
<stop offset="0.888832" stop-color="#32B0E5"/>
</linearGradient>
<linearGradient id="paint2_linear" x1="42.9389" y1="6.45745" x2="6.01258" y2="43.3841" gradientUnits="userSpaceOnUse">
<stop offset="0.00264941" stop-color="#783E97"/>
<stop offset="0.888832" stop-color="#32B0E5"/>
</linearGradient>
<linearGradient id="paint3_linear" x1="42.9389" y1="6.45736" x2="6.01264" y2="43.3841" gradientUnits="userSpaceOnUse">
<stop offset="0.00264941" stop-color="#783E97"/>
<stop offset="0.888832" stop-color="#32B0E5"/>
</linearGradient>
<linearGradient id="paint4_linear" x1="42.939" y1="6.4574" x2="6.01268" y2="43.3841" gradientUnits="userSpaceOnUse">
<stop offset="0.00264941" stop-color="#783E97"/>
<stop offset="0.888832" stop-color="#32B0E5"/>
</linearGradient>
<linearGradient id="paint5_linear" x1="42.939" y1="6.45734" x2="6.01273" y2="43.384" gradientUnits="userSpaceOnUse">
<stop offset="0.00264941" stop-color="#783E97"/>
<stop offset="0.888832" stop-color="#32B0E5"/>
</linearGradient>
<linearGradient id="paint6_linear" x1="42.9391" y1="6.45728" x2="6.01281" y2="43.384" gradientUnits="userSpaceOnUse">
<stop offset="0.00264941" stop-color="#783E97"/>
<stop offset="0.888832" stop-color="#32B0E5"/>
</linearGradient>
<linearGradient id="paint7_linear" x1="42.939" y1="6.45729" x2="6.01272" y2="43.384" gradientUnits="userSpaceOnUse">
<stop offset="0.00264941" stop-color="#783E97"/>
<stop offset="0.888832" stop-color="#32B0E5"/>
</linearGradient>
<linearGradient id="paint8_linear" x1="42.9391" y1="6.45733" x2="6.0128" y2="43.384" gradientUnits="userSpaceOnUse">
<stop offset="0.00264941" stop-color="#783E97"/>
<stop offset="0.888832" stop-color="#32B0E5"/>
</linearGradient>
<linearGradient id="paint9_linear" x1="42.939" y1="6.45738" x2="6.01268" y2="43.3841" gradientUnits="userSpaceOnUse">
<stop offset="0.00264941" stop-color="#783E97"/>
<stop offset="0.888832" stop-color="#32B0E5"/>
</linearGradient>
</defs>
</svg>
